<svg width="31" height="31" viewBox="0 0 31 31" fill="none" xmlns="http://www.w3.org/2000/svg">
<g clip-path="url(#clip0_134_79)">
<path d="M9.43414 5.68665L5.68668 9.43411C5.3389 9.78189 5.3389 10.3464 5.68668 10.6942L9.43666 14.4442C9.60614 14.6136 9.83704 14.7078 10.0768 14.705L13.7826 14.6634C14.0249 14.6606 14.2438 14.5613 14.4026 14.4026C14.5614 14.2438 14.6609 14.0246 14.6634 13.7826L14.705 10.0767C14.7079 9.83702 14.6137 9.60611 14.4442 9.43663L10.6942 5.68665C10.3464 5.33887 9.78192 5.33887 9.43414 5.68665ZM12.9192 10.4318L12.8915 12.8914L10.4318 12.9192L7.57679 10.0641L10.0642 7.57676L12.9192 10.4318Z" fill="#FF4655"/>
<path d="M20.1652 15.537L16.459 15.5783C15.9745 15.5833 15.5833 15.9746 15.5783 16.4591L15.537 20.1653C15.5341 20.405 15.6283 20.6359 15.7978 20.8054L19.5475 24.555C19.8953 24.9028 20.4598 24.9028 20.8076 24.555L24.555 20.8076C24.9028 20.4598 24.9028 19.8953 24.555 19.5475L20.8054 15.7979C20.6359 15.6284 20.405 15.5342 20.1652 15.537ZM20.1775 22.6649L17.3228 19.8102L17.3502 17.3503L19.8102 17.3229L22.6649 20.1776L20.1775 22.6649Z" fill="#FF4655"/>
<path d="M13.7824 15.5779L10.0762 15.5366C9.83648 15.5338 9.60558 15.628 9.4361 15.7975L5.68643 19.5471C5.33865 19.8949 5.33865 20.4594 5.68643 20.8072L9.43389 24.5547C9.78199 24.9028 10.3462 24.9025 10.694 24.5547L14.4436 20.805C14.6131 20.6355 14.7073 20.4046 14.7045 20.1649L14.6635 16.459C14.6582 15.9748 14.2666 15.5833 13.7824 15.5779ZM12.9186 19.8099L10.0639 22.6646L7.57686 20.1775L10.4316 17.3228L12.8915 17.3502L12.9186 19.8099Z" fill="#FF4655"/>
<path d="M19.5475 5.6867L15.7978 9.43637C15.6283 9.60585 15.5342 9.83675 15.537 10.0765L15.5783 13.7827C15.5836 14.2669 15.9752 14.6584 16.4594 14.6638L20.1652 14.7047C20.405 14.7076 20.6359 14.6134 20.8054 14.4439L24.555 10.6942C24.9028 10.3465 24.9028 9.78194 24.555 9.43416L20.8076 5.6867C20.4595 5.33861 19.8953 5.33892 19.5475 5.6867ZM22.6646 10.0639L19.8099 12.9186L17.3502 12.8915L17.3228 10.4315L20.1775 7.57681L22.6646 10.0639Z" fill="#FF4655" stroke="#FF4655"/>
</g>
<defs>
<clipPath id="clip0_134_79">
<rect width="21.3842" height="21.3842" fill="white" transform="translate(0 15.1208) rotate(-45)"/>
</clipPath>
</defs>
</svg>
